<svg xmlns="http://www.w3.org/2000/svg" viewBox="0 0 500 500" width="100%" height="100%">
  <defs>
    <linearGradient id="bgGrad" x1="0%" y1="0%" x2="100%" y2="100%">
      <stop offset="0%" stop-color="#00a896" />
      <stop offset="100%" stop-color="#028090" />
    </linearGradient>
    
    <filter id="glow" x="-20%" y="-20%" width="140%" height="140%">
      <feGaussianBlur stdDeviation="8" result="blur" />
      <feComposite in="SourceGraphic" in2="blur" operator="over" />
    </filter>
  </defs>

  <rect width="500" height="500" rx="90" fill="url(#bgGrad)" />

  <g fill="#e0fbfc" filter="url(#glow)">
    <path d="M 210,90 
             C 170,90 165,130 165,160 
             L 165,210 
             C 165,235 145,245 125,250 
             C 145,255 165,265 165,290 
             L 165,340 
             C 165,370 170,410 210,410 
             L 210,375 
             C 185,375 195,350 195,330 
             L 195,285 
             C 195,255 165,255 155,250 
             C 165,245 195,245 195,215 
             L 195,170 
             C 195,150 185,125 210,125 
             Z" />

    <path d="M 290,90 
             C 330,90 335,130 335,160 
             L 335,210 
             C 335,235 355,245 375,250 
             C 355,255 335,265 335,290 
             L 335,340 
             C 335,370 330,410 290,410 
             L 290,375 
             C 315,375 305,350 305,330 
             L 305,285 
             C 305,255 335,255 345,250 
             C 335,245 305,245 305,215 
             L 305,170 
             C 305,150 315,125 290,125 
             Z" />
  </g>
</svg>
